Coordinates
version=1
nRows=8
nColumns=46
inDegrees=yes

Units are S.I. units (second, meters, Newtons, ...)
Angles are in degrees.

endheader
time	pelvis_tilt	pelvis_list	pelvis_rotation	pelvis_tx	pelvis_ty	pelvis_tz	bb_angle	bb_tx	bb_ty	bb_tz	hip_flexion_r	hip_adduction_r	hip_rotation_r	knee_angle_r	knee_angle_r_beta	ankle_angle_r	subtalar_angle_r	mtp_angle_r	crank_angle_r	hip_flexion_l	hip_adduction_l	hip_rotation_l	knee_angle_l	knee_angle_l_beta	ankle_angle_l	subtalar_angle_l	mtp_angle_l	crank_angle_l	lumbar_extension	lumbar_bending	lumbar_rotation	arm_flex_r	arm_add_r	arm_rot_r	elbow_flex_r	pro_sup_r	wrist_flex_r	wrist_dev_r	arm_flex_l	arm_add_l	arm_rot_l	elbow_flex_l	pro_sup_l	wrist_flex_l	wrist_dev_l
      7.50000000	    -20.98974719	     -3.78671549	      5.10124310	      0.35620529	      1.14703660	     -0.26840800	      0.00000000	      0.50000000	      0.00000000	      0.25000000	     58.72716364	     -2.13895136	      0.94190328	     98.90673412	      1.72624816	    -11.05370388	    -14.09494036	      0.00000000	      0.00000000	     42.32625419	     -1.49481967	      9.09495354	     36.19137139	      0.63165859	    -16.99951264	    -15.75056447	      0.00000000	      0.00000000	    -67.90549082	      4.66282558	     -5.04975802	     56.55343201	    -13.98137994	     20.97541979	     77.00462326	     50.78200280	      0.00000000	      0.00000000	     47.50580251	    -25.68493725	     16.04731828	     91.64265992	     51.02623977	      0.00000000	      0.00000000
      7.50500000	    -20.99983361	     -4.50184920	      5.00598485	      0.35592073	      1.14579458	     -0.26841274	      0.00000000	      0.50000000	      0.00000000	      0.25000000	     60.26906686	     -1.77594485	      0.40323960	    100.71661775	      1.75783659	    -10.32601071	    -14.26988559	      0.00000000	      0.00000000	     41.12087843	     -2.49904089	      8.80173310	     34.29984756	      0.59864527	    -17.99517843	    -14.97158942	      0.00000000	      0.00000000	    -67.70455689	      5.31467724	     -4.27281127	     56.67960629	    -13.82136586	     21.07913130	     77.02754562	     50.78994649	      0.00000000	      0.00000000	     47.16527565	    -25.77640338	     15.97069465	     91.57982862	     51.00964664	      0.00000000	      0.00000000
      7.51000000	    -20.88490755	     -4.96649746	      4.79744230	      0.35579238	      1.14493064	     -0.26821656	      0.00000000	      0.50000000	      0.00000000	      0.25000000	     61.65841789	     -1.49002664	      0.13567043	    102.40514527	      1.78730696	     -9.53008430	    -13.80269088	      0.00000000	      0.00000000	     39.65392183	     -3.39935099	      8.21225236	     32.29104506	      0.56358506	    -19.50229155	    -14.20766635	      0.00000000	      0.00000000	    -67.63989008	      5.64106291	     -3.91175101	     56.75703598	    -13.68844241	     21.46185413	     77.00552357	     50.82416491	      0.00000000	      0.00000000	     46.55115352	    -25.70684051	     15.48015933	     91.44481184	     50.94776969	      0.00000000	      0.00000000
      7.51500000	    -20.90318298	     -5.48085323	      4.64787227	      0.35542566	      1.14376743	     -0.26803126	      0.00000000	      0.50000000	      0.00000000	      0.25000000	     63.21825877	     -1.31867337	     -0.28861191	    103.99339914	      1.81502722	     -8.82415728	    -13.64549440	      0.00000000	      0.00000000	     38.44498071	     -4.31319284	      7.63666104	     30.54585724	      0.53312578	    -20.52502303	    -13.20643927	      0.00000000	      0.00000000	    -67.46654627	      6.19211533	     -3.83767949	     57.43620930	    -13.21973270	     22.59478048	     76.34877450	     50.84876737	      0.00000000	      0.00000000	     45.41998253	    -25.84556936	     13.87467933	     92.02616120	     50.93316853	      0.00000000	      0.00000000
      7.52000000	    -20.92921139	     -6.01228472	      4.57602225	      0.35509677	      1.14257361	     -0.26784757	      0.00000000	      0.50000000	      0.00000000	      0.25000000	     64.76946245	     -1.21307940	     -0.81811381	    105.45384063	      1.84051673	     -8.32365294	    -13.71326738	      0.00000000	      0.00000000	     37.31998367	     -5.23291143	      7.02639615	     28.97432970	      0.50569745	    -21.40216167	    -11.97735431	      0.00000000	      0.00000000	    -67.30670973	      6.69866194	     -3.31761085	     57.54667774	    -13.07255299	     22.72166224	     76.38314713	     50.86717512	      0.00000000	      0.00000000	     45.05395393	    -25.96167780	     13.81610313	     91.94554228	     50.92267826	      0.00000000	      0.00000000
      7.52500000	    -20.86050548	     -6.33640623	      4.37020611	      0.35501105	      1.14152935	     -0.26737061	      0.00000000	      0.50000000	      0.00000000	      0.25000000	     66.19570771	     -1.07939897	     -1.05360456	    106.82353293	      1.86442237	     -7.53374348	    -13.71093245	      0.00000000	      0.00000000	     36.04466804	     -6.12247270	      5.93790524	     27.49322975	      0.47984738	    -21.92845550	    -10.23810222	      0.00000000	      0.00000000	    -67.19485120	      7.02625003	     -3.03118446	     57.62290987	    -12.88439759	     23.10674602	     76.36047822	     50.90594975	      0.00000000	      0.00000000	     44.54285895	    -26.08936904	     13.39606107	     91.87442404	     50.88463117	      0.00000000	      0.00000000
      7.53000000	    -20.87459775	     -6.70003343	      4.20797939	      0.35481151	      1.14039917	     -0.26704699	      0.00000000	      0.50000000	      0.00000000	      0.25000000	     67.69990874	     -1.02730693	     -1.42102275	    108.04388834	      1.88572159	     -7.30260161	    -13.68911936	      0.00000000	      0.00000000	     34.92189382	     -6.97927954	      4.95947555	     26.16793217	      0.45671657	    -22.40436648	     -8.55961601	      0.00000000	      0.00000000	    -67.04805526	      7.43474141	     -2.70625797	     57.80092690	    -12.72430490	     23.52640136	     76.27037837	     50.93592223	      0.00000000	      0.00000000	     44.00242886	    -26.20714048	     12.92508853	     91.88598967	     50.85615496	      0.00000000	      0.00000000
      7.53500000	    -20.93495390	     -7.01488128	      4.04875998	      0.35455230	      1.13925552	     -0.26687247	      0.00000000	      0.50000000	      0.00000000	      0.25000000	     69.22927914	     -1.07976418	     -1.75395898	    109.16412070	      1.90527333	     -6.65006781	    -13.67877478	      0.00000000	      0.00000000	     33.88691135	     -7.75826993	      3.95282815	     24.99015867	      0.43616055	    -22.72628346	     -6.84713945	      0.00000000	      0.00000000	    -66.92284534	      7.91074041	     -2.79125861	     58.51764247	    -12.27122037	     24.58190848	     75.59704097	     50.94339410	      0.00000000	      0.00000000	     42.87323225	    -26.53226674	     11.51565852	     92.59511316	     50.89396397	      0.00000000	      0.00000000
